<svg xmlns="http://www.w3.org/2000/svg" width="495" height="710" viewBox="0 0 495 710">
  <style>
    .header { font: 600 18px "Segoe UI", Ubuntu, "Helvetica Neue", sans-serif; fill: #e6edf3; }
    .subheader { font: 400 14px "Segoe UI", Ubuntu, "Helvetica Neue", sans-serif; fill: #8b949e; }
    .body { font: 400 12px "Segoe UI", Ubuntu, "Helvetica Neue", sans-serif; fill: #e6edf3; }
    .small { font: 400 11px "Segoe UI", Ubuntu, "Helvetica Neue", sans-serif; fill: #8b949e; }
    .label { font: 600 13px "Segoe UI", Ubuntu, "Helvetica Neue", sans-serif; fill: #e6edf3; }
    .mono { font: 400 11px "SF Mono", "Cascadia Code", Consolas, monospace; fill: #8b949e; }
    .accent { fill: #58a6ff; }
    @keyframes fadeIn { from { opacity: 0; } to { opacity: 1; } }
    .section { animation: fadeIn 0.3s ease-in; }
  </style>
  <rect width="495" height="710" rx="10" fill="#0d1117" stroke="#30363d" stroke-width="1"/>
  <g class="section" transform="translate(25, 25)">
    <circle cx="22" cy="22" r="22" fill="#58a6ff" opacity="0.15"/>
    <text x="22" y="27" text-anchor="middle" style="font: 600 16px &apos;Segoe UI&apos;, Ubuntu, &apos;Helvetica Neue&apos;, sans-serif; fill: #58a6ff;">T</text>
    <text x="54" y="18" class="header">TrebuchetDynamics</text>
    <text x="54" y="36" class="subheader">@TrebuchetDynamics</text>
    <rect x="54" y="44" rx="8" ry="8" width="86" height="20" fill="#58a6ff" opacity="0.15"/>
    <text x="62" y="58" style="font: 600 11px &apos;Segoe UI&apos;, Ubuntu, &apos;Helvetica Neue&apos;, sans-serif; fill: #58a6ff;">Full Stack</text>
    <text x="0" y="86" class="small">1 followers</text>
  </g>
  <g class="section" transform="translate(25, 131)">
    <text x="0" y="14" class="label">Languages</text>
    <text x="445" y="14" text-anchor="end" class="small">98% logic code</text>
    <rect x="0.0" y="24" width="410.7" height="8" rx="1" fill="#00ADD8"/>
    <rect x="410.7" y="24" width="12.0" height="8" rx="1" fill="#00B4AB"/>
    <rect x="422.7" y="24" width="8.0" height="8" rx="1" fill="#89e051"/>
    <rect x="430.8" y="24" width="4.9" height="8" rx="1" fill="#3572A5"/>
    <rect x="435.7" y="24" width="3.1" height="8" rx="1" fill="#555555"/>
    <rect x="438.8" y="24" width="2.2" height="8" rx="1" fill="#f1e05a"/>
    <rect x="441.0" y="24" width="2.0" height="8" rx="1" fill="#f34b7d"/>
    <rect x="443.0" y="24" width="2.0" height="8" rx="1" fill="#DA5B0B"/>
    <circle cx="5.0" cy="46" r="4" fill="#00ADD8"/>
    <text x="13.0" y="50" class="small">Go 92.3%</text>
    <circle cx="73.0" cy="46" r="4" fill="#00B4AB"/>
    <text x="81.0" y="50" class="small">Dart 2.7%</text>
    <circle cx="154.0" cy="46" r="4" fill="#89e051"/>
    <text x="162.0" y="50" class="small">Shell 1.8%</text>
    <circle cx="241.5" cy="46" r="4" fill="#3572A5"/>
    <text x="249.5" y="50" class="small">Python 1.1%</text>
    <circle cx="335.5" cy="46" r="4" fill="#555555"/>
    <text x="343.5" y="50" class="small">MDX 0.7%</text>
    <circle cx="5" cy="62" r="4" fill="#f1e05a"/>
    <text x="13" y="66" class="small">JavaScript 0.5%</text>
  </g>
  <g class="section" transform="translate(25, 225)">
    <text x="0" y="14" class="label">Stack</text>
    <rect x="0.0" y="26" rx="10" ry="10" width="51" height="22" fill="#58a6ff" opacity="0.1"/>
    <text x="8.0" y="41" class="small">Cobra</text>
    <rect x="57.0" y="26" rx="10" ry="10" width="51" height="22" fill="#58a6ff" opacity="0.1"/>
    <text x="65.0" y="41" class="small">Viper</text>
    <rect x="114.0" y="26" rx="10" ry="10" width="65" height="22" fill="#58a6ff" opacity="0.1"/>
    <text x="122.0" y="41" class="small">Testify</text>
  </g>
  <g class="section" transform="translate(25, 297)">
    <text x="0" y="14" class="label">Quality Score: 55%</text>
    <text x="0" y="36" class="small">Tests</text>
    <rect x="55" y="26" width="120" height="12" rx="3" fill="#30363d"/>
    <rect x="55" y="26" width="26.6" height="12" rx="3" fill="#f85149"/>
    <text x="183" y="36" class="small">22%</text>
    <text x="0" y="54" class="small">CI/CD</text>
    <rect x="55" y="44" width="120" height="12" rx="3" fill="#30363d"/>
    <rect x="55" y="44" width="93.4" height="12" rx="3" fill="#3fb950"/>
    <text x="183" y="54" class="small">78%</text>
    <text x="0" y="72" class="small">Docs</text>
    <rect x="55" y="62" width="120" height="12" rx="3" fill="#30363d"/>
    <rect x="55" y="62" width="106.7" height="12" rx="3" fill="#3fb950"/>
    <text x="183" y="72" class="small">89%</text>
    <text x="0" y="90" class="small">License</text>
    <rect x="55" y="80" width="120" height="12" rx="3" fill="#30363d"/>
    <rect x="55" y="80" width="80.0" height="12" rx="3" fill="#d29922"/>
    <text x="183" y="90" class="small">67%</text>
    <text x="0" y="108" class="small">Linter</text>
    <rect x="55" y="98" width="120" height="12" rx="3" fill="#30363d"/>
    <rect x="55" y="98" width="13.3" height="12" rx="3" fill="#f85149"/>
    <text x="183" y="108" class="small">11%</text>
  </g>
  <g class="section" transform="translate(25, 433)">
    <text x="0" y="14" class="label">Focus Areas</text>
    <rect x="0.0" y="26" rx="12" ry="12" width="79" height="24" fill="#58a6ff" opacity="0.12"/>
    <text x="8.0" y="42" style="font: 600 11px &apos;Segoe UI&apos;, Ubuntu, &apos;Helvetica Neue&apos;, sans-serif; fill: #58a6ff;">CLI Tools</text>
    <rect x="87.0" y="26" rx="12" ry="12" width="58" height="24" fill="#58a6ff" opacity="0.12"/>
    <text x="95.0" y="42" style="font: 600 11px &apos;Segoe UI&apos;, Ubuntu, &apos;Helvetica Neue&apos;, sans-serif; fill: #58a6ff;">DevOps</text>
    <rect x="153.0" y="26" rx="12" ry="12" width="100" height="24" fill="#58a6ff" opacity="0.12"/>
    <text x="161.0" y="42" style="font: 600 11px &apos;Segoe UI&apos;, Ubuntu, &apos;Helvetica Neue&apos;, sans-serif; fill: #58a6ff;">Data Science</text>
  </g>
  <g class="section" transform="translate(25, 507)">
    <text x="0" y="14" class="label">Top Projects</text>
    <text x="0" y="40" style="font-weight: 600;" class="body">★ gormes-agent</text>
    <text x="200" y="40" class="small">★ 3</text>
    <circle cx="270" cy="36" r="4" fill="#00ADD8"/>
    <text x="278" y="40" class="small">Go</text>
    <text x="0" y="62" style="font-weight: 400;" class="body">go-browser-harness</text>
    <text x="200" y="62" class="small">★ 2</text>
    <circle cx="270" cy="58" r="4" fill="#00ADD8"/>
    <text x="278" y="62" class="small">Go</text>
    <text x="0" y="84" style="font-weight: 400;" class="body">fecim-lattice-tools</text>
    <text x="200" y="84" class="small">★ 2</text>
    <circle cx="270" cy="80" r="4" fill="#00ADD8"/>
    <text x="278" y="84" class="small">Go</text>
    <text x="0" y="106" style="font-weight: 400;" class="body">cosmos-statera-go</text>
    <text x="200" y="106" class="small">★ 1</text>
    <circle cx="270" cy="102" r="4" fill="#00ADD8"/>
    <text x="278" y="106" class="small">Go</text>
    <text x="0" y="128" style="font-weight: 400;" class="body">moscovium-statera-go</text>
    <text x="200" y="128" class="small">★ 2</text>
    <circle cx="270" cy="124" r="4" fill="#00ADD8"/>
    <text x="278" y="128" class="small">Go</text>
  </g>
  <g class="section" transform="translate(25, 665)">
    <text x="0" y="14" class="mono">Generated by devcard · 2026-05-11</text>
  </g>
</svg>